# xmcd
#
# Track frame offsets:
#	150
#	17210
#	38007
#	57347
#	77390
#	95297
#	127357
#	144870
#	162897
#	178952
#
# Disc length: 2689 seconds
#
# Revision: 1
# Processed by: cddbd v1.4PL0 Copyright (c) Steve Scherf et al.
# Submitted via: audiograbber 1.81.02
#
DISCID=7e0a7f0a
DTITLE=The Mighty Reapers - The Mighty Reapers
DYEAR=1993
DGENRE=
TTITLE0=Watch me move
TTITLE1=You dont know what love is
TTITLE2=UGH!
TTITLE3=Whos been talking
TTITLE4=The same things
TTITLE5=Its my own fault
TTITLE6=New kind of groove
TTITLE7=Time goes marching on
TTITLE8=I live the life I love
TTITLE9=Waiting for a miracle
EXTD=
EXTT0=
EXTT1=
EXTT2=
EXTT3=
EXTT4=
EXTT5=
EXTT6=
EXTT7=
EXTT8=
EXTT9=
PLAYORDER=
